<svg width="540" height="141" viewBox="0 0 540 141" fill="none" xmlns="http://www.w3.org/2000/svg">
<path d="M153.918 32.6917L150.427 47.1391L147.065 32.6917H153.918Z" fill="#A71C21"/>
<path d="M137.204 113.36H121.377L130.515 107.946L137.204 113.36Z" fill="#91151A"/>
<path d="M150.427 47.1391L137.204 113.359L130.515 107.946L134.135 91.4985L147.066 32.6917L150.427 47.1391Z" fill="#DA2C25"/>
<path d="M147.065 32.683V32.6916L130.515 107.946L121.377 113.359L142.135 27.1575L147.065 32.683Z" fill="#C01F25"/>
<path d="M179.607 113.351L170.469 107.946L153.919 32.6916L158.996 27.1575L179.607 113.351Z" fill="#ED4032"/>
<path d="M179.607 113.351V113.36H163.72V113.351L170.469 107.946L179.607 113.351Z" fill="#91151A"/>
<path d="M170.469 107.946L163.72 113.351L150.428 47.1391L153.919 32.6917L166.858 91.4985L170.469 107.946Z" fill="#C01F25"/>
<path d="M158.997 27.1575L153.919 32.6916H147.066V32.683L142.136 27.1575H158.997Z" fill="#DA2C25"/>
<path d="M160.435 97.0241H140.462L134.135 91.4985H166.857L160.435 97.0241Z" fill="#91151A"/>
<path d="M166.857 91.4984H134.135L142.669 85.9642H158.219L166.857 91.4984Z" fill="#ED4032"/>
<path d="M513.925 32.692L510.434 47.1394L507.072 32.692H513.925Z" fill="#A71C21"/>
<path d="M497.21 113.36H481.384L490.521 107.946L497.21 113.36Z" fill="#91151A"/>
<path d="M510.432 47.1394L497.209 113.36L490.52 107.946L494.14 91.4989L507.071 32.692L510.432 47.1394Z" fill="#DA2C25"/>
<path d="M507.072 32.6833V32.6919L490.521 107.946L481.384 113.36L502.141 27.1578L507.072 32.6833Z" fill="#C01F25"/>
<path d="M539.613 113.351L530.476 107.946L513.925 32.692L519.002 27.1578L539.613 113.351Z" fill="#ED4032"/>
<path d="M539.613 113.351V113.36H523.726V113.351L530.476 107.946L539.613 113.351Z" fill="#91151A"/>
<path d="M530.476 107.946L523.726 113.351L510.434 47.1394L513.925 32.692L526.864 91.4988L530.476 107.946Z" fill="#C01F25"/>
<path d="M519 27.1578L513.923 32.692H507.07V32.6833L502.139 27.1578H519Z" fill="#DA2C25"/>
<path d="M520.441 97.0248H500.468L494.141 91.4992H526.863L520.441 97.0248Z" fill="#91151A"/>
<path d="M526.863 91.4992H494.141L502.675 85.965H518.226L526.863 91.4992Z" fill="#ED4032"/>
<path d="M417.854 38.6568H366.547L371.96 32.6917H412.432L417.854 38.6568Z" fill="#91151A"/>
<path d="M417.855 27.2692V38.6565L412.432 32.6913L417.855 27.2692Z" fill="#ED4032"/>
<path d="M417.854 27.2692L412.432 32.6913H371.96L366.547 27.2692H417.854Z" fill="#DA2C25"/>
<path d="M371.96 32.6913L366.547 38.6564V27.2692L371.96 32.6913Z" fill="#C01F25"/>
<path d="M400.184 38.6566V113.359L392.201 107.946V32.7001L400.184 38.6566Z" fill="#ED4032"/>
<path d="M392.2 32.7001V107.946L384.226 113.359V38.6566L392.2 32.7001Z" fill="#C01F25"/>
<path d="M400.182 113.359H384.226L392.2 107.946L400.182 113.359Z" fill="#91151A"/>
<path d="M291.231 83.1372V103.429L283.223 102.524V85.637L283.214 85.6284L291.231 83.1372Z" fill="#C01F25"/>
<path d="M291.23 103.429L286.721 107.937L283.222 102.524L291.23 103.429Z" fill="#DA392C"/>
<path d="M286.723 107.937V107.946H260.121L263.621 102.524H283.223L286.723 107.937Z" fill="#ED4032"/>
<path d="M263.62 84.9819V102.524L256.224 103.36L255.604 103.429V90.3954H255.612L263.62 84.9819Z" fill="#DA2C25"/>
<path d="M263.629 53.6732H263.62L255.604 56.0523V37.2086L255.612 37.2L263.577 38.1051H263.62L263.629 53.6732Z" fill="#DA2C25"/>
<path d="M255.603 37.1998V56.0521L247.595 58.5519V36.2946L255.603 37.1998Z" fill="#C01F25"/>
<path d="M260.112 32.6917V32.7004L255.612 37.2001H255.603L247.595 36.295L256.603 27.2869L260.112 32.6917Z" fill="#C72F35"/>
<path d="M290.217 27.287L286.726 32.6918H260.115L256.607 27.287L256.616 27.2783C256.616 27.2783 289.993 27.2697 290.217 27.287Z" fill="#DA2C25"/>
<path d="M290.222 113.342C289.99 113.36 256.621 113.351 256.621 113.351L260.112 107.946H286.714L290.222 113.342Z" fill="#91151A"/>
<path d="M299.247 104.334L290.239 113.342H290.23L286.722 107.946V107.937L291.23 103.429L299.247 104.334Z" fill="#A71C21"/>
<path d="M299.247 36.2946V54.3281L291.23 48.9146V37.1998L299.247 36.2946Z" fill="#ED4032"/>
<path d="M291.231 37.2001L283.266 38.1052H283.214L286.714 32.6917H286.722L291.231 37.2001Z" fill="#A71C21"/>
<path d="M286.714 32.6917L283.214 38.1052H263.62L260.112 32.7003L260.121 32.6917H286.714Z" fill="#91151A"/>
<path d="M299.247 36.295L291.23 37.2001L286.722 32.6917L290.213 27.2869L299.247 36.295Z" fill="#FC4A3C"/>
<path d="M291.23 37.2V48.9148L283.222 54.3283V38.1138L291.23 37.2Z" fill="#C01F25"/>
<path d="M260.12 107.946L256.629 113.351C256.62 113.351 256.62 113.351 256.612 113.351H256.603L247.595 104.343V104.334L255.603 103.429L260.12 107.946Z" fill="#B12236"/>
<path d="M263.62 102.524L260.121 107.946L255.604 103.429L263.62 102.524Z" fill="#E92F28"/>
<path d="M255.603 90.3954V103.429L247.595 104.334V84.9819L255.603 90.3954Z" fill="#C01F25"/>
<path d="M263.62 84.9735V84.9821L255.612 90.3956H255.603L247.595 84.9821V84.9735H263.62Z" fill="#FE4647"/>
<path d="M299.247 54.3284H283.222L291.23 48.9149L299.247 54.3284Z" fill="#91151A"/>
<path d="M263.621 38.105H263.578L255.613 37.1998L260.113 32.7001L263.621 38.105Z" fill="#DA392C"/>
<path d="M291.23 83.1369L283.214 85.6281L247.595 58.5521L255.603 56.0523L291.23 83.1369Z" fill="#91151A"/>
<path d="M299.248 80.6285V80.6372L291.231 83.137L255.604 56.0524L263.62 53.6733H263.629L299.248 80.6285Z" fill="#ED4032"/>
<path d="M299.247 80.6372V104.334L291.23 103.429V83.137L299.247 80.6372Z" fill="#ED4032"/>
<path d="M16.8141 38.1048V102.523L8.79733 107.945V32.6913H8.80595L16.8141 38.1048Z" fill="#DA2C25"/>
<path d="M53.3723 79.2663L44.8728 75.5165V103.868L53.3981 104.273L53.3723 79.2663Z" fill="#ED4032"/>
<path d="M44.8723 103.868L40.8122 107.937L37.3038 102.532V102.524L44.8723 103.868Z" fill="#C01F25"/>
<path d="M8.7969 32.6831V107.946H8.78828L0.788757 113.359V27.2696L8.7969 32.6831Z" fill="#C01F25"/>
<path d="M44.8735 37.1739V61.6552L36.8826 58.9657L36.8912 58.9571L36.8826 38.1049L44.8735 37.1739Z" fill="#C01F25"/>
<path d="M44.8735 37.1738L36.8826 38.1048L40.3824 32.6913H40.391L44.8735 37.1738Z" fill="#A71C21"/>
<path d="M52.8464 36.2341L52.8206 58.1466L44.8728 61.655V37.1737L52.8464 36.2341Z" fill="#ED4032"/>
<path d="M49.225 64.9483L41.0013 68.5774H29.1313L44.8718 61.6554L49.225 64.9483Z" fill="#90151A"/>
<path d="M52.8206 58.1471L49.2346 64.9484H49.226L44.8728 61.6555L52.8206 58.1471Z" fill="#A71C21"/>
<path d="M52.8452 36.2258V36.2344L44.8715 37.174L40.389 32.6915L43.8974 27.278L52.8452 36.2258Z" fill="#FC4A3C"/>
<path d="M53.3973 104.273L44.3288 113.342L40.8118 107.946V107.937L44.8719 103.868L53.3973 104.273Z" fill="#A71C21"/>
<path d="M44.8723 75.5165V103.868L37.3038 102.523V77.4043L44.8723 75.5165Z" fill="#C01F25"/>
<path d="M40.3807 32.6913L36.8809 38.1048H16.8132L8.80501 32.6913H40.3807Z" fill="#91151A"/>
<path d="M49.7504 72.443L44.878 75.5173L29.1313 68.5771H40.9755L49.7504 72.443Z" fill="#ED4032"/>
<path d="M43.8983 27.2783L40.3898 32.6917H8.7969V32.6831L0.788757 27.2696H43.8896L43.8983 27.2783Z" fill="#DA2C25"/>
<path d="M44.3293 113.342L0.788757 113.359L8.78828 107.946H40.8122L44.3293 113.342Z" fill="#91151A"/>
<path d="M40.8127 107.937V107.946H8.79733L16.8141 102.524H37.3043V102.532L40.8127 107.937Z" fill="#ED4032"/>
<path d="M53.3723 79.2576V79.2662L44.8728 75.5164L49.7518 72.439L53.3723 79.2576Z" fill="#FC4A3C"/>
<path d="M44.8721 75.5164L37.3036 77.4042L29.1575 73.8096H16.8134L8.69319 68.5771H29.1316L29.1489 68.5858L29.1575 68.5771L44.8721 75.5164Z" fill="#91151A"/>
<path d="M44.8721 61.6557L29.1316 68.5777H8.69319L16.8134 63.3539H29.1575V63.3453L36.8812 58.9662L44.8721 61.6557Z" fill="#ED4032"/>
<path d="M539.525 140.392H0.690918L6.52973 134.427L533.683 134.427L539.525 140.392Z" fill="#91151A"/>
<path d="M539.525 129.005L533.683 134.427L6.52973 134.427L0.690918 129.005H539.525Z" fill="#DA2C25"/>
<path d="M6.52973 134.427L0.690918 140.392V129.005L6.52973 134.427Z" fill="#C01F25"/>
<path d="M533.686 134.427L539.525 140.392V129.005L533.686 134.427Z" fill="#C01F25"/>
<path d="M539.525 11.5126H0.690918L6.52973 5.54738H533.683L539.525 11.5126Z" fill="#91151A"/>
<path d="M539.525 0.125244L533.683 5.54738H6.52973L0.690918 0.125244L539.525 0.125244Z" fill="#DA2C25"/>
<path d="M6.52973 5.54738L0.690918 11.5126V0.125244L6.52973 5.54738Z" fill="#C01F25"/>
<path d="M533.686 5.54752L539.525 11.5126V0.125244L533.686 5.54752Z" fill="#C01F25"/>
</svg>
