<svg width="25" height="25" viewBox="0 0 25 25" fill="none" xmlns="http://www.w3.org/2000/svg">
<path d="M23.239 6.19775C23.239 4.19141 20.5522 2.67871 16.989 2.67871C13.4258 2.67871 10.739 4.19141 10.739 6.19775C10.739 6.21558 10.7429 6.23242 10.7434 6.25H10.739V8.92847H12.5247V8.70728C13.6421 9.3374 15.2056 9.71631 16.989 9.71631C18.6343 9.71631 20.0879 9.39087 21.1812 8.84619C21.3506 9.02149 21.4534 9.1958 21.4534 9.34863C21.4534 10.0383 19.6729 11.0815 16.989 11.0815H15.2039V12.8672H16.989C18.6345 12.8672 20.0886 12.5417 21.1819 11.9968C21.3516 12.1719 21.4531 12.3462 21.4531 12.4998C21.4531 13.1899 19.6726 14.2332 16.9888 14.2332L16.3567 14.2361C15.9683 14.2395 15.592 14.2432 15.2253 14.2334L15.1816 16.0183C15.3779 16.0232 15.5767 16.0249 15.7793 16.0249C15.9729 16.0249 16.1699 16.0237 16.3701 16.022L16.9888 16.019C18.6353 16.019 20.0898 15.6931 21.1833 15.1477C21.3535 15.3242 21.4529 15.4995 21.4529 15.6511C21.4529 16.3413 19.6724 17.3845 16.9885 17.3845H15.2034V19.1702H16.9885C18.635 19.1702 20.0894 18.8442 21.1831 18.2988C21.3535 18.4751 21.4529 18.6504 21.4529 18.8022C21.4529 19.4924 19.6724 20.5356 16.9885 20.5356H15.2034V22.3213H16.9885C20.5518 22.3213 23.2385 20.8086 23.2385 18.8022C23.2385 18.7856 23.2363 18.7668 23.2358 18.75H23.2385V6.25H23.2341C23.2349 6.23242 23.239 6.21533 23.239 6.19775ZM12.5247 6.19775C12.5247 5.50757 14.3052 4.46436 16.989 4.46436C19.6729 4.46436 21.4534 5.50757 21.4534 6.19775C21.4534 6.88745 19.6729 7.93066 16.989 7.93066C14.3052 7.93066 12.5247 6.88745 12.5247 6.19775Z" fill="white"/>
<path d="M8.0603 8.92847C4.49707 8.92847 1.8103 10.4412 1.8103 12.4475C1.8103 12.4653 1.81421 12.4822 1.8147 12.4998H1.8103V18.7498C1.8103 20.7561 4.49707 22.2688 8.0603 22.2688C11.6235 22.2688 14.3103 20.7561 14.3103 18.7498V12.5H14.3059C14.3064 12.4824 14.3103 12.4653 14.3103 12.4478C14.3103 10.4414 11.6235 8.92847 8.0603 8.92847ZM3.59595 15.5989C3.59595 15.4446 3.69678 15.2705 3.86645 15.0955C4.95996 15.6406 6.41431 15.9663 8.0603 15.9663C9.70557 15.9663 11.1592 15.6409 12.2524 15.0962C12.4219 15.2715 12.5247 15.4458 12.5247 15.5986C12.5247 16.2883 10.7441 17.3315 8.0603 17.3315C5.37646 17.3315 3.59595 16.2886 3.59595 15.5989ZM8.0603 10.7144C10.7441 10.7144 12.5247 11.7576 12.5247 12.4478C12.5247 13.1375 10.7441 14.1807 8.0603 14.1807C5.37646 14.1807 3.59595 13.1375 3.59595 12.4478C3.59595 11.7576 5.37646 10.7144 8.0603 10.7144ZM8.0603 20.4834C5.37646 20.4834 3.59595 19.4402 3.59595 18.75C3.59595 18.5964 3.69775 18.4221 3.86719 18.2471C4.96069 18.792 6.41455 19.1177 8.0603 19.1177C9.70581 19.1177 11.1599 18.7922 12.2532 18.2473C12.4229 18.4224 12.5244 18.5967 12.5244 18.7502C12.5247 19.4402 10.7441 20.4834 8.0603 20.4834Z" fill="white"/>
</svg>
