<svg width="24" height="24" viewBox="0 0 24 24" fill="none" xmlns="http://www.w3.org/2000/svg">
<path d="M12.0015 2.48279C5.83129 2.48279 0.830533 6.61037 0.830533 11.7045C0.830533 13.8148 1.6989 15.7478 3.13891 17.304C2.48872 19.0508 1.13599 20.5316 1.11417 20.5493C0.826169 20.8596 0.747623 21.3119 0.913442 21.702C1.07926 22.0921 1.4589 22.3449 1.87781 22.3449C4.56146 22.3449 6.67784 21.2054 7.94766 20.2921C9.20876 20.6956 10.5702 20.9261 12.0015 20.9261C18.1717 20.9261 23.1725 16.7986 23.1725 11.7045C23.1725 6.61037 18.1717 2.48279 12.0015 2.48279ZM12.0015 18.7981C10.8364 18.7981 9.6844 18.6163 8.58039 18.2616L7.58984 17.9424L6.73893 18.5542C6.11492 19.002 5.25965 19.503 4.22982 19.8399C4.54837 19.3035 4.85819 18.7005 5.09819 18.0577L5.56074 16.8119L4.66183 15.8453C3.872 14.9897 2.92509 13.5754 2.92509 11.7045C2.92509 7.79412 6.99638 4.61087 12.0015 4.61087C17.0066 4.61087 21.0779 7.79412 21.0779 11.7045C21.0779 15.6148 17.0066 18.7981 12.0015 18.7981Z" fill="white"/>
</svg>
