<svg width="35" height="34" viewBox="0 0 35 34" fill="none" xmlns="http://www.w3.org/2000/svg">
<path d="M17.5871 34H17.5123C8.16197 34 0.554688 26.3905 0.554688 17.0374V16.9626C0.554688 7.60951 8.16197 0 17.5123 0H17.5871C26.9374 0 34.5447 7.60951 34.5447 16.9626V17.0374C34.5447 26.3905 26.9374 34 17.5871 34ZM17.5123 1.15087C8.79591 1.15087 1.70521 8.24363 1.70521 16.9626V17.0374C1.70521 25.7564 8.79591 32.8491 17.5123 32.8491H17.5871C26.3035 32.8491 33.3942 25.7564 33.3942 17.0374V16.9626C33.3942 8.24363 26.3035 1.15087 17.5871 1.15087H17.5123Z" fill="#0292FD"/>
<path d="M22.6314 7.25879H12.47C9.6627 7.25879 7.37891 9.54326 7.37891 12.3514V21.6503C7.37891 24.4584 9.6627 26.7429 12.47 26.7429H22.6314C25.4387 26.7429 27.7225 24.4584 27.7225 21.6503V12.3514C27.7225 9.54326 25.4387 7.25879 22.6314 7.25879ZM9.17488 12.3514C9.17488 10.5342 10.6533 9.05527 12.47 9.05527H22.6314C24.4481 9.05527 25.9265 10.5342 25.9265 12.3514V21.6503C25.9265 23.4676 24.4481 24.9464 22.6314 24.9464H12.47C10.6533 24.9464 9.17488 23.4676 9.17488 21.6503V12.3514Z" fill="#0292FD"/>
<path d="M17.5481 21.7366C20.1586 21.7366 22.2836 19.6121 22.2836 16.9996C22.2836 14.3872 20.1598 12.2627 17.5481 12.2627C14.9364 12.2627 12.8125 14.3872 12.8125 16.9996C12.8125 19.6121 14.9364 21.7366 17.5481 21.7366ZM17.5481 14.0603C19.1692 14.0603 20.4877 15.3792 20.4877 17.0008C20.4877 18.6224 19.1692 19.9413 17.5481 19.9413C15.927 19.9413 14.6085 18.6224 14.6085 17.0008C14.6085 15.3792 15.927 14.0603 17.5481 14.0603Z" fill="#0292FD"/>
<path d="M22.7212 13.0277C23.4242 13.0277 23.9972 12.4557 23.9972 11.7514C23.9972 11.0471 23.4254 10.4751 22.7212 10.4751C22.0171 10.4751 21.4453 11.0471 21.4453 11.7514C21.4453 12.4557 22.0171 13.0277 22.7212 13.0277Z" fill="#0292FD"/>
</svg>
