<svg width="16" height="16" viewBox="0 0 16 16" fill="none" xmlns="http://www.w3.org/2000/svg">
<path d="M3 10H8.33333C8.88467 10 9.33333 9.55135 9.33333 9.00002V8.33335C9.33333 7.78202 8.88467 7.33335 8.33333 7.33335H3C2.44867 7.33335 2 7.78202 2 8.33335V9.00002C2 9.55135 2.44867 10 3 10ZM2.66667 8.33335C2.66667 8.14935 2.816 8.00002 3 8.00002H8.33333C8.51733 8.00002 8.66667 8.14935 8.66667 8.33335V9.00002C8.66667 9.18402 8.51733 9.33335 8.33333 9.33335H3C2.816 9.33335 2.66667 9.18402 2.66667 9.00002V8.33335ZM11 13.3334H13C13.5513 13.3334 14 12.8847 14 12.3334V8.33335C14 7.78202 13.5513 7.33335 13 7.33335H11C10.4487 7.33335 10 7.78202 10 8.33335V12.3334C10 12.8847 10.4487 13.3334 11 13.3334ZM10.6667 8.33335C10.6667 8.14935 10.816 8.00002 11 8.00002H13C13.184 8.00002 13.3333 8.14935 13.3333 8.33335V12.3334C13.3333 12.5174 13.184 12.6667 13 12.6667H11C10.816 12.6667 10.6667 12.5174 10.6667 12.3334V8.33335ZM3 13.3334H8.33333C8.88467 13.3334 9.33333 12.8847 9.33333 12.3334V11.6667C9.33333 11.1154 8.88467 10.6667 8.33333 10.6667H3C2.44867 10.6667 2 11.1154 2 11.6667V12.3334C2 12.8847 2.44867 13.3334 3 13.3334ZM2.66667 11.6667C2.66667 11.4827 2.816 11.3334 3 11.3334H8.33333C8.51733 11.3334 8.66667 11.4827 8.66667 11.6667V12.3334C8.66667 12.5174 8.51733 12.6667 8.33333 12.6667H3C2.816 12.6667 2.66667 12.5174 2.66667 12.3334V11.6667ZM13 0.666687H3C1.346 0.666687 0 2.01269 0 3.66669V12.3334C0 13.9874 1.346 15.3334 3 15.3334H13C14.654 15.3334 16 13.9874 16 12.3334V3.66669C16 2.01269 14.654 0.666687 13 0.666687ZM15.3333 12.3334C15.3333 13.62 14.2867 14.6667 13 14.6667H3C1.71333 14.6667 0.666667 13.62 0.666667 12.3334V6.00002H15.3333V12.3334ZM15.3333 5.33335H0.666667V3.66669C0.666667 2.38002 1.71333 1.33335 3 1.33335H13C14.2867 1.33335 15.3333 2.38002 15.3333 3.66669V5.33335ZM7.33333 3.33335C7.33333 3.70135 7.03467 4.00002 6.66667 4.00002C6.29867 4.00002 6 3.70135 6 3.33335C6 2.96535 6.29867 2.66669 6.66667 2.66669C7.03467 2.66669 7.33333 2.96535 7.33333 3.33335ZM3.33333 3.33335C3.33333 3.70135 3.03467 4.00002 2.66667 4.00002C2.29867 4.00002 2 3.70135 2 3.33335C2 2.96535 2.29867 2.66669 2.66667 2.66669C3.03467 2.66669 3.33333 2.96535 3.33333 3.33335ZM5.33333 3.33335C5.33333 3.70135 5.03467 4.00002 4.66667 4.00002C4.29867 4.00002 4 3.70135 4 3.33335C4 2.96535 4.29867 2.66669 4.66667 2.66669C5.03467 2.66669 5.33333 2.96535 5.33333 3.33335Z" fill="black"/>
</svg>
