<svg width="35" height="34" viewBox="0 0 35 34" fill="none" xmlns="http://www.w3.org/2000/svg">
<path d="M17.5793 34H17.5045C8.15416 34 0.546875 26.3905 0.546875 17.0374V16.9626C0.546875 7.60951 8.15416 0 17.5045 0H17.5793C26.9296 0 34.5369 7.60951 34.5369 16.9626V17.0374C34.5369 26.3905 26.9296 34 17.5793 34ZM17.5045 1.15087C8.7881 1.15087 1.6974 8.24363 1.6974 16.9626V17.0374C1.6974 25.7564 8.7881 32.8491 17.5045 32.8491H17.5793C26.2956 32.8491 33.3863 25.7564 33.3863 17.0374V16.9626C33.3863 8.24363 26.2956 1.15087 17.5793 1.15087H17.5045Z" fill="#0292FD"/>
<path d="M7.78155 8.01221L15.3543 18.1398L7.73438 26.3743H9.44981L16.1217 19.1653L21.5119 26.3743H27.3485L19.3501 15.677L26.4431 8.01221H24.7276L18.5838 14.6516L13.6193 8.01221H7.78269H7.78155ZM10.3035 9.27588H12.9842L24.8243 25.1106H22.1436L10.3035 9.27588Z" fill="#0292FD"/>
</svg>
