<svg width="35" height="34" viewBox="0 0 35 34" fill="none" xmlns="http://www.w3.org/2000/svg">
<path d="M17.4836 33.9068C8.13784 33.9068 0.535156 26.3019 0.535156 16.9534C0.535156 7.60492 8.13784 0 17.4836 0C26.8293 0 34.4319 7.60492 34.4319 16.9534C34.4319 26.3019 26.8293 33.9068 17.4836 33.9068ZM17.4836 1.15087C8.77293 1.15087 1.68568 8.2402 1.68568 16.9534C1.68568 25.6666 8.77293 32.7559 17.4836 32.7559C26.1942 32.7559 33.2814 25.6666 33.2814 16.9534C33.2814 8.2402 26.1942 1.15087 17.4836 1.15087Z" fill="#0292FD"/>
<path d="M27.7918 13.5594C27.6629 12.3153 27.3857 10.94 26.3652 10.2173C25.5747 9.65682 24.5358 9.63609 23.5659 9.63725C21.5157 9.6384 19.4643 9.6407 17.4141 9.64185C15.4421 9.64416 13.47 9.64531 11.498 9.64761C10.6743 9.64876 9.8735 9.58432 9.1084 9.94109C8.45145 10.2472 7.93716 10.8295 7.62767 11.4775C7.19852 12.3786 7.10879 13.3994 7.05701 14.3961C6.96152 16.211 6.97188 18.0305 7.08578 19.8443C7.16977 21.1678 7.38261 22.6305 8.40543 23.4741C9.31204 24.221 10.5914 24.2578 11.7673 24.259C15.4996 24.2624 19.233 24.2659 22.9665 24.2682C23.4451 24.2694 23.9444 24.2601 24.4323 24.2072C25.3918 24.1036 26.3065 23.8286 26.9231 23.1173C27.5456 22.4004 27.7055 21.4025 27.7999 20.4577C28.03 18.1652 28.0277 15.8508 27.7918 13.5594ZM15.2557 20.1665V13.7389L20.8196 16.9522L15.2557 20.1665Z" fill="#0292FD"/>
</svg>
